<svg width="1238" height="351" viewBox="0 0 1238 351" fill="none" xmlns="http://www.w3.org/2000/svg">
<path d="M288.277 180.676C195.039 202.147 172.145 225.038 150.674 318.281C149.534 323.24 142.462 323.24 141.322 318.281C119.851 225.042 96.9609 202.147 3.71856 180.676C-1.23952 179.536 -1.23952 172.464 3.71856 171.324C96.9609 149.853 119.855 126.958 141.326 33.7186C142.466 28.7605 149.538 28.7605 150.679 33.7186C172.149 126.958 195.039 149.853 288.281 171.324C293.24 172.464 293.24 179.536 288.281 180.676H288.277Z" fill="white"/>
<path d="M365.362 275V73.875H437.597C485.753 73.875 510.682 90.5882 510.682 128.264C510.682 151.209 496.801 167.639 473.006 171.038C502.183 174.438 519.18 192.85 519.18 219.761C519.18 256.587 493.685 275 448.361 275H365.362ZM447.511 247.522C472.723 247.522 487.736 237.041 487.736 216.929C487.736 197.099 472.723 185.768 447.511 185.768H395.955V247.522H447.511ZM437.03 159.707C463.941 159.707 479.238 149.226 479.238 130.53C479.238 110.701 464.791 101.353 437.03 101.353H395.955V159.707H437.03ZM614.212 278.399C570.587 278.399 542.827 247.239 542.827 199.649C542.827 152.059 570.587 120.899 613.362 120.899C654.437 120.899 682.481 150.076 682.481 200.782V208.43H574.27C575.686 237.891 590.7 252.621 614.495 252.621C632.341 252.621 644.239 243.84 649.055 229.676L680.215 231.659C672.283 259.703 647.638 278.399 614.212 278.399ZM650.471 185.768C648.771 159.141 634.041 146.393 613.362 146.393C592.116 146.393 577.669 160.274 574.27 185.768H650.471ZM752.762 278.399C721.602 278.399 701.206 263.386 701.206 237.324C701.206 211.546 716.503 197.666 749.363 191.151L801.202 181.236C801.202 158.008 790.437 146.393 768.908 146.393C749.646 146.393 738.881 155.175 734.915 171.605L703.755 169.622C709.421 139.595 732.933 120.899 768.908 120.899C809.7 120.899 831.229 143.844 831.229 182.936V241.574C831.229 248.939 833.778 251.205 839.444 251.205H844.826V275C842.843 275.567 838.027 275.85 833.778 275.85C816.499 275.85 806.301 269.335 803.751 251.771C796.103 267.635 776.274 278.399 752.762 278.399ZM757.861 254.604C784.772 254.604 801.202 237.608 801.202 213.529V203.898L757.294 212.396C739.165 215.796 732.366 222.877 732.366 234.492C732.366 247.522 741.714 254.604 757.861 254.604ZM868.643 275V124.298H896.121L896.687 150.359C904.053 131.946 919.633 120.899 938.612 120.899C960.991 120.899 976.571 132.513 983.086 152.059C989.885 131.946 1005.18 120.899 1026.71 120.899C1058.44 120.899 1076.57 141.294 1076.57 178.12V275H1046.54V185.485C1046.54 159.424 1037.19 146.11 1017.93 146.11C998.95 146.11 986.769 161.124 986.769 186.618V275H958.158V186.618C958.158 161.124 950.226 146.11 930.114 146.11C910.851 146.11 898.67 161.407 898.67 186.618V275H868.643Z" fill="white"/>
<path d="M1116.47 123V86.08H1129.73C1138.57 86.08 1143.15 89.148 1143.15 96.064C1143.15 100.276 1140.6 103.292 1136.23 103.916C1141.59 104.54 1144.71 107.92 1144.71 112.86C1144.71 119.62 1140.03 123 1131.71 123H1116.47ZM1131.55 117.956C1136.18 117.956 1138.94 116.032 1138.94 112.34C1138.94 108.7 1136.18 106.62 1131.55 106.62H1122.09V117.956H1131.55ZM1129.63 101.836C1134.57 101.836 1137.38 99.912 1137.38 96.48C1137.38 92.84 1134.72 91.124 1129.63 91.124H1122.09V101.836H1129.63ZM1150.42 123V86.08H1174.44V91.228H1156.04V101.992H1173.82V106.984H1156.04V117.852H1174.86V123H1150.42ZM1189.28 123V91.228H1177.95V86.08H1206.24V91.228H1194.9V123H1189.28ZM1202.85 123L1216.16 86.08H1223.34L1236.65 123H1230.62L1227.29 113.38H1212.21L1208.83 123H1202.85ZM1213.98 108.284H1225.52L1219.75 91.436L1213.98 108.284Z" fill="white"/>
</svg>
